<svg xmlns="http://www.w3.org/2000/svg" xmlns:xlink="http://www.w3.org/1999/xlink" width="24.479" height="32.569" viewBox="0 0 24.479 32.569"><defs><clipPath id="a"><rect width="24.479" height="32.569" fill="none"/></clipPath></defs><g clip-path="url(#a)"><g transform="translate(3 3)" fill="#fff" stroke="#000" stroke-width="1"><rect width="15.435" height="20.883" rx="2" stroke="none"/><rect x="0.5" y="0.5" width="14.435" height="19.883" rx="1.5" fill="none"/></g><line x2="9.079" transform="translate(6.178 7.086)" fill="none" stroke="#000" stroke-width="1.5"/><line x2="9.079" transform="translate(6.178 10.717)" fill="none" stroke="#000" stroke-width="1.5"/><g transform="translate(9.73 13.441)"><ellipse cx="4.87" cy="4.87" rx="4.87" ry="4.87" transform="translate(1.218 1.218)"/><path d="M0,.013,2.808,0V6.7L1.394,5.686,0,6.717Z" transform="matrix(0.966, 0.259, -0.259, 0.966, 3.325, 9.189)"/><path d="M0,.015,2.808,0V8.228L1.394,6.979,0,8.244Z" transform="translate(6.122 10.209) rotate(-22)"/><ellipse cx="2.435" cy="2.435" rx="2.435" ry="2.435" transform="translate(1.218 1.218)"/><ellipse cx="2.435" cy="2.435" rx="2.435" ry="2.435" transform="translate(3.653)"/><ellipse cx="2.435" cy="2.435" rx="2.435" ry="2.435" transform="translate(6.088 1.218)"/><ellipse cx="2.435" cy="2.435" rx="2.435" ry="2.435" transform="translate(7.305 3.653)"/><ellipse cx="2.435" cy="2.435" rx="2.435" ry="2.435" transform="translate(6.088 6.088)"/><ellipse cx="2.435" cy="2.435" rx="2.435" ry="2.435" transform="translate(3.653 7.305)"/><ellipse cx="2.435" cy="2.435" rx="2.435" ry="2.435" transform="translate(1.218 6.088)"/><ellipse cx="2.435" cy="2.435" rx="2.435" ry="2.435" transform="translate(0 3.653)"/><ellipse cx="3.653" cy="3.653" rx="3.653" ry="3.653" transform="translate(2.435 2.435)" fill="#fff"/></g></g></svg>