<svg id="Calque_1" data-name="Calque 1" xmlns="http://www.w3.org/2000/svg" viewBox="0 0 633.34 274.52"><defs><style>.cls-1{fill:#312782;}</style></defs><title>Logotype_Lheo_300dpi_RVB</title><path class="cls-1" d="M565.59,292.3c-34.39,0-61.53,25.53-66.94,58a13.5,13.5,0,0,0-.64,24.06,59,59,0,0,1-57.9,47.57,57.44,57.44,0,0,1-42-17.92,13.43,13.43,0,0,0,2.3-7.53,13.6,13.6,0,0,0-.28-2.74l99.74-68.61A69.57,69.57,0,0,0,459.67,295l35.43-24.37a13.6,13.6,0,1,0-7-8.74l-44.41,30.5c-1.17-.06-2.35-0.1-3.54-0.1-41.33,0-69.64,32.27-69.64,70.21a71.65,71.65,0,0,0,5,26.69,13.44,13.44,0,0,0-2.14,7.29,13.65,13.65,0,0,0,.14,1.87l-26.28,18a13.66,13.66,0,0,0-1.31-.48v-70c0-33.12-23.78-55.2-53.78-55.2-17.55,0-33.12,7.64-42.46,20.95h-0.57V194.06a13.5,13.5,0,1,0-10.76-.8V415.59a13.55,13.55,0,0,0-5.8,6H184.31c-26,0-43-20.95-43-48.69V195.22a13.51,13.51,0,1,0-11.89.3V373.45c0,38.49,26.61,58.31,51,58.31h51.5a13.5,13.5,0,1,0,17.27-17V347.33c0-28,19.53-46.42,43-46.42s43,18.4,43,46.42v69.83a13.5,13.5,0,1,0,19.68,7.73l24.75-17a13.2,13.2,0,0,0,9,2c12.83,13.79,31.65,22.26,53.8,22.26,27.91,0,51.05-17,61.68-40.21,10.68,23.54,33.75,40.21,61.54,40.21,38.5,0,67.94-32,67.94-69.92S604.09,292.3,565.59,292.3ZM386.88,383a13.58,13.58,0,0,0-1.64.11,59.77,59.77,0,0,1-3.44-20c0-32,24.06-60.59,58.31-60.59a54.87,54.87,0,0,1,43.31,20.39l-90,61.81A13.41,13.41,0,0,0,386.88,383Zm178.71,39c-28.38,0-50-21.36-55.32-47.27a13.48,13.48,0,0,0-.11-24.41c5.16-26.13,26.87-47.78,55.43-47.78,32.84,0,56.62,28.6,56.62,59.73S598.43,421.95,565.59,421.95Z" transform="translate(-121.53 -167.82)"/><circle class="cls-1" cx="444.07" cy="194.68" r="13.51"/><path class="cls-1" d="M565.21,237.51a6.28,6.28,0,1,0,0,12.57A111.5,111.5,0,0,1,676.59,361.45a6.28,6.28,0,1,0,12.57,0A124.08,124.08,0,0,0,565.21,237.51Z" transform="translate(-121.53 -167.82)"/><path class="cls-1" d="M565.21,171.8a6.28,6.28,0,1,0,0,12.57c97.64,0,177.08,79.44,177.08,177.08a6.28,6.28,0,1,0,12.57,0C754.86,256.88,669.79,171.8,565.21,171.8Z" transform="translate(-121.53 -167.82)" role="img"/></svg>