<svg id="svg2" xmlns="http://www.w3.org/2000/svg" viewBox="0 0 1606.95 906" role="img"><defs><style>.cls-1{fill:#fff;}.cls-2{fill:#e2011c;}.cls-3{fill:#003189;}.cls-4{fill:#7f7f7f;}</style></defs><title>Mariane</title><rect id="rect6" class="cls-1" x="68.95" width="1538" height="520"/><path id="path8" d="M1228.17,905.42c-0.85-.35-0.9-1.27-0.19-3.32,0.9-2.59,1.32-2.79,4.79-2.33,3.15,0.42,4.08.12,5.39-1.76,2.53-3.61.58-6.22-4-5.36-3.52.66-3.58,0.62-2.9-2.08,2.15-8.58,2.36-8.11-4.06-9.38a38,38,0,0,1-20.57-12c-8.43-9.38-11.36-18.87-10.52-34.12,0.43-7.77,1.09-10.8,3.54-16.2,7.5-16.53,24.62-25,47.64-23.46a98,98,0,0,1,14.06,1.89l5,1.29,0.29,9.25,0.29,9.25h-3c-1.79,0-3-.52-3-1.27,0-2.6-6.12-8.61-10.45-10.26-5.59-2.13-16.43-1.65-21.87,1-12.42,6-18.08,21.61-14.3,39.41,1.75,8.27,4.65,13.82,10.19,19.52,5.25,5.4,10.55,7.58,18.49,7.6,8.39,0,14.27-3.34,18-10.31,2.51-4.73,3.41-5.31,5.83-3.78,1.13,0.71,1.14,2.36.06,10l-1.29,9.1-4.56,1.58a64.21,64.21,0,0,1-12.81,2.18c-7.82.57-8.25,0.72-8.25,3,0,1.78.55,2.35,2.28,2.35a7.65,7.65,0,0,1,7.21,6c0.86,3.91-1.93,9.7-5.58,11.59-2.64,1.37-12.93,1.9-15.59.82h0Zm-595-4.21c-8.66-2.55-16.12-6.4-25.1-12.94l-7.76-5.65-12-.62c-13.31-.68-18-2.17-26.56-8.49-19-13.92-19.65-49.34-1.29-66.58,13.82-13,38.13-15.66,55.62-6.14,23.62,12.86,26.13,50.78,4.67,70.65-3.33,3.08-6.59,5.61-7.25,5.61-2,0,21.46,12.86,28.33,15.5,7.59,2.91,16.46,3.3,23,1,4.73-1.67,5.53-1.47,6.33,1.57,0.46,1.77-.35,2.52-5.13,4.73-7.54,3.49-23.34,4.14-32.82,1.35h0Zm-29.32-30.9c16.74-8.75,19.93-36.76,6.22-54.65-12.71-16.58-35-14.07-43.36,4.89-7.56,17.13,1.07,43.6,16.5,50.61A24.17,24.17,0,0,0,603.88,870.31ZM78.35,880.67c-4.59-2-9.63-8.24-17.6-21.77-12.23-20.79-14.53-23.84-17.94-23.84h-3l0,11.25c0,20.53,2.1,27.56,8.57,29.18a2.73,2.73,0,0,1,2.41,3.08v2.48h-41V878.7c0-1.78.76-2.57,3.15-3.26a11.8,11.8,0,0,0,5.25-3.72c2.05-2.75,2.1-3.75,2.1-41.67s-0.05-38.92-2.1-41.67A11.81,11.81,0,0,0,13,784.67c-2.3-.66-3.15-1.49-3.15-3.1,0-2.19.11-2.2,25.4-2.85,26.91-.69,32.84-0.18,40.43,3.49,6.63,3.21,12.15,12.93,12.17,21.41,0,9.71-7.2,20.68-16.73,25.41l-5,2.48,11,16.52c13,19.44,17,24.63,20.87,26.61,3.58,1.85,3.92,5.88.58,6.78-4,1.08-17.17.59-20.25-.76h0Zm-25-55.73c13.41-3.72,17.93-22.35,7.78-32.05-4.77-4.56-9.83-6.22-16.3-5.33l-5,.68v37.81H44.6a39.59,39.59,0,0,0,8.73-1.11h0Zm230.4,55.73c-5.48-2-10.65-5.45-13.38-9-5-6.52-5.49-9.95-5.55-36.46-0.06-27.72-.58-30.76-5.67-33.12-2-.95-3.24-2.23-3.25-3.5,0-1.92.64-2,17-2,17,0,17,0,17,2.25,0,1.51-.6,2.25-1.83,2.25-1,0-2.92,1.16-4.25,2.58l-2.42,2.58v27.17c0,25.57.12,27.4,2.08,31.13,3,5.81,9.13,8.8,17,8.33,8.42-.5,13-3.49,16.33-10.71,2.58-5.54,2.6-5.81,2.62-30.13,0-21.78-.18-24.85-1.74-27.23a8.68,8.68,0,0,0-4.25-3.31c-1.55-.39-2.49-1.33-2.49-2.52,0-1.76.92-1.89,13.5-1.89s13.5,0.13,13.5,1.89c0,1.18-.93,2.13-2.47,2.51-4.6,1.16-5,3.3-5.52,32.17l-0.51,27.07-3,5.88a27,27,0,0,1-16.72,13.94c-6.25,1.86-20.88,1.94-25.89.15h0Zm390,0c-5.54-2-10.66-5.46-13.49-9.17-4.71-6.18-5.39-10.75-5.45-36.86-0.06-27.15-.6-30.24-5.67-32.59-2-.95-3.24-2.23-3.25-3.5,0-1.92.64-2,17-2,16.8,0,17,0,17,2.18a2.26,2.26,0,0,1-2.15,2.5c-1.18.18-3.09,1.59-4.25,3.14-2,2.64-2.12,4.29-2.43,26.21-0.38,26.92.37,32.6,4.93,37.27,8.25,8.44,25.41,6.08,30.27-4.16,3.06-6.45,3.85-14.53,3.47-35.7-0.4-22.41-1.07-25.2-6.35-26.53-1.55-.39-2.49-1.33-2.49-2.52,0-1.76.92-1.89,13.5-1.89s13.5,0.13,13.5,1.88c0,1.13-1.16,2.36-2.93,3.09a8,8,0,0,0-3.69,2.87c-0.42.91-1,13.84-1.32,28.73l-0.56,27.08-3,5.88a27,27,0,0,1-16.72,13.94c-6.25,1.86-20.88,1.94-25.89.15h0Zm316.53,0c-4-1.74-8.75-7.67-16.11-20.08-9.5-16-10.58-17.47-13.05-17.49-2.21,0-2.25.19-2.25,12.52,0,15,1.25,19.17,6,20.11,2.37,0.47,3,1.14,3,3v2.38h-34v-2.37c0-1.85.68-2.51,3-3,5.7-1.14,6.1-3.85,5.76-38.66l-0.3-30.83-2.42-2.58c-1.33-1.42-3.25-2.58-4.25-2.58a1.73,1.73,0,0,1-1.83-1.91c0-1.65,1-2,7.34-2.6,4-.38,15.17-0.52,24.75-0.31,15.57,0.34,17.86.61,21.58,2.58,6.62,3.49,10.33,10.3,10.33,18.92,0,8.19-4.7,15.39-13.23,20.26-2.72,1.55-4.48,3.12-3.91,3.47s5,6.59,9.82,13.86c9.48,14.27,14.75,20.72,16.93,20.72,1.93,0,1.76,4.64-.2,5.39-2.84,1.09-13.84.56-17-.82h0Zm-18.48-47c4-2.06,7.88-7,8.61-10.91,0.94-5-1.27-11.63-5.08-15.23-3.53-3.33-6.95-4.29-12.85-3.6l-3.6.42v30.78h5a21.1,21.1,0,0,0,7.88-1.46h0Zm445.12,46.87a38.86,38.86,0,0,1-5.85-1.86,80.69,80.69,0,0,1-1.63-10l-1.23-9.57H1411c1.55,0,2.82.37,2.82,0.83,0,2.6,6.56,10.27,10.37,12.11,10.29,5,22.64.29,22.63-8.59,0-5.83-2.84-9.31-12.47-15.35-13.52-8.47-18.74-12.95-21.44-18.38s-3.17-13.83-1.14-20c1.34-4.06,7.62-10.12,12.91-12.45s22-2.27,28.89.13l5.25,1.83v17.84H1456c-2.24,0-3-.56-3.51-2.48-1-4.18-6.41-9.39-10.9-10.6-12-3.23-21.62,9.08-14.08,18,1.44,1.71,8,6.73,14.5,11.16,12.66,8.58,17.33,13.25,18.9,18.88,3.45,12.39-2.28,23.34-14.63,28-6.63,2.48-21,2.7-29.33.45h0Zm-1310.05-2.1c0-1.77.56-2.3,2.43-2.3a6.49,6.49,0,0,0,4.5-2.63c2-2.54,2.07-3.78,2.07-34.07,0-22-.35-32.09-1.16-33.62-1.49-2.8-3.86-4.61-6.09-4.65-1.19,0-1.75-.83-1.75-2.53v-2.5h60v21.13l-2.63-.32c-2-.24-2.9-1.16-3.75-3.72-2-6-5.26-7.49-17.17-7.93l-10.46-.39v28.48l8-.47c8.77-.51,13.18-2.64,13.78-6.64,0.24-1.59,1-2.15,3-2.15h2.68v26H157.6c-2.22,0-2.75-.45-2.75-2.35,0-4.47-3.33-6.12-13.1-6.5l-8.9-.35v14c0,16.93.16,17.16,11.57,17.16,11.26,0,17.13-2.85,20.07-9.75,1.49-3.49,4.95-4.48,6-1.73,0.7,1.82-2.12,13.56-4.24,17.65l-1.5,2.9-29-.23-29-.23v-2.3h0Zm77,0.32c0-1.83.68-2.51,2.95-3,5.28-1.06,5.53-2.54,5.87-34.66,0.35-33.45-.08-36.46-5.54-39-2.28-1.06-3.23-2.19-3.25-3.84l0-2.34,22.75,0.41c24.6,0.45,26.6.84,33.27,6.45,7.33,6.17,9.23,18.43,4.27,27.54-4.33,7.95-11.81,12.17-23.73,13.39l-6.25.64-1.55-3.87-1.55-3.87,3.7-.54a20.34,20.34,0,0,0,12.49-7.29c1.54-2.06,2.09-4.22,2-8-0.13-9.74-5.6-15.69-15.15-16.48l-5.4-.45L209,837.18c0.34,36.4.5,37.43,6.06,38.57,2.07,0.42,2.75,1.15,2.75,2.94v2.38h-34v-2.37h0Zm166-.37c0-1.55.59-2.26,1.89-2.26a8.56,8.56,0,0,0,4.25-1.91l2.36-1.91,0.3-31c0.34-34.7,0-37.32-5.79-39.48-1.8-.68-3-1.86-3-2.92,0-1.62,1.39-1.8,15.25-2,29.18-.48,35.29-0.15,40,2.15,6.15,3,9,7.29,9.53,14.3a35.7,35.7,0,0,1-.2,8.19c-1,3.93-5.65,8.72-10.8,11.11l-4.76,2.21,4,1.21c9.64,2.89,15.79,13,14.51,23.8-1.07,9.15-5,14.29-14.1,18.48-4.78,2.2-6.06,2.3-29.25,2.31H349.85v-2.26h0Zm44.1-7.53c5.1-3.4,7.12-8,6.55-15-0.85-10.49-8.18-16.71-19.69-16.71H374.7L375,854.15c0.31,14.46.42,15.17,2.68,17,3.45,2.79,11.8,2.61,16.24-.36h0Zm-4.13-41.55c6.14-2.35,9.37-7.16,8.73-13-0.86-7.83-7.17-12.19-17.67-12.19h-6v27l5.25-.05a33.57,33.57,0,0,0,9.72-1.77h0Zm41,49.14c0-1.62.69-2.27,2.65-2.5a8.24,8.24,0,0,0,4.75-3.14c2-2.72,2.1-3.9,2.1-33.5,0-24.59-.28-31.17-1.41-33.18-1.77-3.12-4.07-4.93-6.34-5-1.14,0-1.75-.82-1.75-2.28,0-2.25,0-2.25,18-2.25s18,0,18,2.25c0,1.56-.59,2.25-1.94,2.25-1.07,0-3.21,1.09-4.75,2.41l-2.81,2.41-0.29,31.54L456.77,869l2.56,1.68c2,1.33,4.19,1.58,10.39,1.22,9.52-.55,14-2.91,16.62-8.78,1.76-3.91,3.63-4.86,6.26-3.19,1,0.63.83,2.48-.76,8.67-1.11,4.33-2.71,8.93-3.56,10.23l-1.55,2.36-27.95-.29-27.95-.29v-2.18Zm70,0.31c0-1.85.68-2.51,3-3,5.52-1.1,6-3.83,6-37.36,0-27.84-.13-30-2-33a9.3,9.3,0,0,0-4.5-3.86c-1.72-.43-2.53-1.32-2.53-2.78,0-2.1.29-2.14,17-2.14s17,0,17,2.14c0,1.45-.81,2.34-2.49,2.77a8.68,8.68,0,0,0-4.25,3.31c-1.59,2.42-1.76,5.74-1.76,33.23,0,34,.41,36.68,5.64,37.72,2.18,0.44,2.86,1.13,2.86,2.95v2.38h-34v-2.37Zm239-.18c0-1.64.76-2.35,3-2.8,5.52-1.1,6-3.82,6-37.46,0-29.47,0-29.93-2.28-33.28-1.26-1.87-3.28-3.54-4.5-3.72-1.59-.23-2.22-1-2.22-2.75v-2.43h59v10.5c0,10.4,0,10.5-2.39,10.5-1.93,0-2.51-.66-3-3.46-1.12-5.94-5.2-7.94-17.16-8.38l-10.12-.37-0.65,4.75a139.67,139.67,0,0,0-.65,14.25v9.5l8.51-.53c9.37-.58,13.07-2.23,14.09-6.26,0.45-1.78,1.3-2.49,3-2.49h2.39v26h-2.5c-1.7,0-2.51-.56-2.53-1.75-0.09-4.95-4.85-7.25-15-7.25h-8.16L765,855.14c0.42,17.06.32,16.92,12.33,16.92,10.6,0,16.11-2.54,19-8.75,1.45-3.13,2.56-4.25,4.19-4.25a3.79,3.79,0,0,1,2.89,1.09c0.91,1.47-3.52,17.73-5.33,19.54-1.19,1.19-6.27,1.4-29.83,1.22l-28.39-.21V878.5h0Zm110,0.24c0-1.64.93-2.74,3.18-3.75a15.73,15.73,0,0,0,5.25-4.25c2-2.74,2.07-4,2.07-40.5,0-42.38-.08-42.89-7-45.17-2.74-.9-3.52-1.7-3.52-3.58v-2.42h70v25h-3c-2.44,0-3-.42-3-2.25,0-3.68-3.77-8.76-7.77-10.47-2.36-1-7.84-1.77-15-2.07l-11.25-.47v34.25l8.25-.06c11-.08,14.76-1.44,17.08-6.19,1.49-3.06,2.37-3.75,4.75-3.75h2.92v30.13l-3.21-.31c-2.21-.22-3.38-0.94-3.75-2.31-1.59-5.88-7.71-8.5-19.87-8.5h-6.39L880,849.81c0.46,20.26,1.32,23.22,7.31,25.38,2.63,0.95,3.51,1.85,3.51,3.57v2.3h-41v-2.32h0Zm160-.18c0-1.83.53-2.5,2-2.5,3.06,0,6.56-6.23,14.17-25.23,10.19-25.45,19.84-51.32,19.84-53.16,0-1.26,1-1.61,4.75-1.59l4.75,0,13.49,34.57c14.65,37.54,17.35,43.38,20.76,44.88a3.59,3.59,0,0,1,2.25,3.25c0,2.26,0,2.26-17,2.26h-17v-2.37c0-1.83.68-2.51,3-3,4.3-.86,4.56-3.77,1.22-13.66l-2.87-8.5h-23.63l-2.38,7c-3,8.82-2.82,14.86.44,15.32,1.63,0.23,2.25,1,2.25,2.75v2.43h-26v-2.5h0Zm46-35c0-1.52-7.35-21.48-7.91-21.48-0.36,0-1.38,1.91-2.27,4.25s-2.76,7.29-4.17,11l-2.57,6.75h8.46C1052,844.06,1055.85,843.83,1055.85,843.54Zm43,35.14c0-1.79.68-2.51,2.75-2.94,5.41-1.11,5.65-2.52,6.07-35.22,0.43-33.74,0-36.57-5.81-38.77-1.8-.68-3-1.86-3-2.92,0-1.6,1.13-1.78,11.25-1.78h11.25l6.5,8.23c3.57,4.52,12.8,15.67,20.5,24.77s15,17.88,16.29,19.52l2.29,3L1166.61,830c-0.35-24.62-.91-27.16-6.28-28.5-1.55-.39-2.49-1.33-2.49-2.52,0-1.76.92-1.89,13.5-1.89s13.5,0.12,13.5,1.93a2.24,2.24,0,0,1-2.15,2.25c-1.18.18-3.09,1.59-4.25,3.14-2,2.73-2.11,4-2.41,39.75l-0.31,36.93h-4.36c-3.94,0-4.68-.41-7.67-4.25-2.64-3.4-45-55.87-46.63-57.75-0.24-.28-0.23,10.75,0,24.5,0.49,27.88,1.1,31.22,5.87,32.17,2.21,0.44,2.89,1.13,2.89,3v2.38h-27v-2.37h0Zm175-.12c0-1.49.57-2.5,1.41-2.5,2,0,5.68-4.69,8.33-10.55,3.68-8.14,20.79-52.31,23.73-61.26L1310,796l4.47,0.3,4.47,0.3,13.27,34c7.3,18.7,14.07,35.58,15,37.5,2.24,4.39,5.49,8,7.22,8,0.75,0,1.33,1.09,1.33,2.5v2.5h-34v-2.5c0-1.74.55-2.5,1.8-2.5,4.84,0,5.29-4.23,1.62-15.25l-2.58-7.75h-23.47l-2.13,6.75c-4,12.75-3.83,16.25.89,16.25,1.34,0,1.88.72,1.88,2.5v2.5h-26v-2.5Zm42.43-44.75c-1.89-5.64-3.71-10.92-4-11.75s-2.35,2.93-5,9.5c-2.4,6-4.38,11.34-4.4,11.75s3.76,0.75,8.4.75h8.43Zm45.57,44.75c0-2,.51-2.5,2.34-2.5a6.75,6.75,0,0,0,4.25-2.1c1.77-2,1.93-4.26,2.2-33.25,0.16-17.13,0-32.15-.26-33.37-0.71-2.85-4.38-6.28-6.72-6.28-1.21,0-1.81-.74-1.81-2.25,0-2.25,0-2.25,17-2.25,16.35,0,17,.08,17,2,0,1.25-1.09,2.49-2.89,3.29a8.39,8.39,0,0,0-3.93,4c-1.46,3.83-2.29,35-1.38,51.89,0.63,11.76,1.08,14.53,2.64,16.25a6.24,6.24,0,0,0,3.72,2.07c1.3,0,1.84.74,1.84,2.5v2.5h-34v-2.5h0Zm112-.18c0-1.79.56-2.32,2.43-2.32a6.49,6.49,0,0,0,4.5-2.63c2-2.54,2.07-3.78,2.07-34.07,0-22-.35-32.09-1.16-33.62-1.49-2.8-3.86-4.61-6.09-4.65-1.19,0-1.75-.83-1.75-2.53v-2.5h60v21.13l-2.63-.32c-2-.24-2.9-1.16-3.75-3.72-2-6-5.26-7.49-17.17-7.93l-10.46-.39v28.23l6.25-.06c8.68-.08,12.91-1.71,14.75-5.67,1.1-2.36,2.17-3.23,4-3.25l2.5,0v26h-2.75c-2.22,0-2.75-.45-2.75-2.35,0-4.47-3.33-6.12-13.1-6.5l-8.9-.35v14c0,16.93.16,17.16,11.57,17.16,11.26,0,17.13-2.85,20.07-9.75,1.49-3.49,4.95-4.48,6-1.73,0.7,1.82-2.12,13.56-4.24,17.65l-1.5,2.9-29-.22-29-.22v-2.32h0ZM133.9,787.14l-2.44-1.88,5.94-9.08c3.27-5,6.58-9.09,7.36-9.1,3.38,0,14.15,2.28,13.88,3-0.54,1.41-20.27,19-21.3,19a9.6,9.6,0,0,1-3.44-1.89h0ZM6.85,718.06h1523v9H6.85v-9h0Zm579.64-20.46c-8-2.85-12.5-10.31-11-18.3,1-5.39,4-9.15,9.43-11.66l4.72-2.19-2.87-1.65c-1.63-.94-2.87-2.5-2.87-3.62,0-1.81,7.33-9.12,9.15-9.12,0.43,0-.2-1.66-1.39-3.7-5.12-8.68-1-21.23,8.54-26.15,5.18-2.66,6.92-2.78,25-1.62,10.43,0.67,10.81.77,10.26,2.83a18.5,18.5,0,0,0-.59,2.88c0,0.41-1.77.75-3.92,0.75H627l0.53,5.81c1.15,12.68-7.87,21.37-22.43,21.6-7.56.12-11.23,1.73-8.27,3.63a96.08,96.08,0,0,0,10.85,4c16.56,5.36,19.62,8.05,18.91,16.66-0.73,8.94-7.93,16.74-18.33,19.87-6,1.79-16.72,1.78-21.8,0h0Zm22.27-6.17c8.12-4,11.64-11.75,7.2-15.77-3-2.71-16-6.86-19.35-6.19-6.85,1.37-13.26,9.73-12.07,15.76,1.62,8.29,13.79,11.4,24.23,6.2h0Zm2.68-45.25c6.1-3.72,8.45-14.26,4.35-19.48-5.61-7.13-16.29.82-16.39,12.2,0,3.54.48,4.78,2.77,6.75C605.53,648.55,607.36,648.65,611.43,646.17Zm37.92,23.2c-4.39-.9-6.75-3.83-7.25-9-1.28-13.31,9.92-32.82,22.45-39.11,6.51-3.27,19.36-3.6,27.92-.72,0.77,0.26.2,3.68-1.78,10.71-3.87,13.75-6.09,27.52-4.81,29.89,0.84,1.56,1.43,1.67,4.08.74,2.45-.85,3.29-0.79,4,0.3,1.44,2.28.56,3.14-5.15,5.09-7.68,2.63-11.2,2.11-12.35-1.8l-0.91-3.09-4.09,2.29c-6.91,3.86-16.36,5.88-22.08,4.71h0Zm17.29-9c2.91-1.38,5.94-3.51,6.74-4.73,1.34-2,5.41-17,7-25.78,0.65-3.58.57-3.7-3.06-4.71-6.72-1.85-13.47,3-18.85,13.67-5.64,11.15-7.07,21.08-3.39,23.65C657.56,664.25,659.09,664,666.63,660.39Zm473.47,8.7c-4.49-1.07-6.07-2.62-7.3-7.18-1.86-6.91,2.44-20,9.76-29.64,8.77-11.58,18.51-15.48,32.89-13.19,3.79,0.6,7.18,1.41,7.55,1.79s-0.9,6.77-2.81,14.19-3.56,16.42-3.66,20l-0.19,6.5,4.25-.19c3.81-.17,4.25,0,4.25,2.09s-0.94,2.57-5.77,4c-7.95,2.41-11.64,1.89-12-1.68-0.17-1.51-.5-2.75-0.72-2.75s-2.84,1.08-5.81,2.39c-4.78,2.12-14.53,4.79-16.45,4.51C1143.66,669.9,1141.89,669.51,1140.1,669.08Zm16.74-8.56a25.33,25.33,0,0,0,6.12-4.11c2.21-2.54,6.18-15.59,8.24-27.08,0.55-3.06.38-3.27-3.4-4.29-3.24-.87-4.63-0.76-7.48.59-6.35,3-12.65,13.23-15.91,25.82-3.13,12.05.77,14.9,12.44,9.07h0ZM72.34,666.81c-0.3-1.24,1.48-10.54,4-20.67,4.88-20,4.84-21.6-.51-20.06-2.65.76-2.95,0.61-2.95-1.43s0.93-2.54,5.75-4a55.48,55.48,0,0,1,9.25-1.91c3.29-.22,3.52,0,3.82,3.12,0.18,1.84-1.55,11-3.83,20.31s-3.89,17.66-3.56,18.51c0.47,1.23,1.52,1.41,5.16.86,4.35-.65,4.55-0.58,4.24,1.61-0.26,1.81-1.49,2.66-5.83,4A43.57,43.57,0,0,1,77.61,669c-4.1.05-4.8-.24-5.27-2.19h0Zm38.45,0.4-2.28-1.85,7.75-34c4.26-18.72,7.6-35.33,7.42-36.9-0.34-2.94-.7-3.09-4.58-1.92-1.92.58-2.25,0.31-2.25-1.84,0-2.91,3.51-4.32,13.25-5.31,5.58-.57,5.75-0.51,5.75,1.84,0,1.33-1.57,9.56-3.5,18.28s-3.5,16.44-3.5,17.16c0,1,1.1.81,4.34-.62,11.14-4.93,20.84-4.67,24.33.65,3.26,5,1.57,17.87-3.73,28.43-2.76,5.5-11,14.05-15.42,16.08-5.86,2.66-24.3,2.68-27.58,0h0Zm25.3-6.34c5-3.55,10.6-15.54,12.18-26.13s-5.43-12.73-16.63-5a14.36,14.36,0,0,0-5.24,6.69c-1.81,4.89-5.55,20.86-5.55,23.71,0,4.21,9.68,4.68,15.25.74h0ZM174.28,666c-2.71-2.83-2.93-3.63-2.88-10.25,0.14-16.88,9.74-32,23-36.15,6.6-2.07,12.4-1.37,16.29,2,2.24,1.93,2.69,3.14,2.69,7.23,0,10.3-9.39,18.1-22.9,19-3.9.27-7.43,1-7.83,1.61-1.13,1.7-.9,7.48.38,9.93,2.5,4.74,6.08,4.85,14.65.45,5.34-2.74,6.44-3,7.23-1.75,1.77,2.79.95,3.67-6.83,7.32-6.48,3-8.9,3.66-14.31,3.66C177.77,669.06,177,668.8,174.28,666Zm17.91-24c8.51-2.36,14.12-11.46,9.76-15.82-2.75-2.75-5.29-2.66-8.82.31-2.81,2.37-7.38,9.87-8.73,14.33-0.57,1.88-.3,2.25,1.64,2.24A29.94,29.94,0,0,0,192.19,642Zm33.66,26.74c0-.17,1.8-7.92,4-17.23s4-18.9,4-21.31V625.8l-4,.64c-3.55.57-4,.41-4-1.36,0-2.19,3.23-3.87,11.35-5.9,5.55-1.38,7.65-.43,7.65,3.46V625l3.55-2.41c6.24-4.24,10.06-5,14.59-3,2.17,1,3.81,2.27,3.64,2.86-2.72,9.57-4.26,12.58-6.46,12.58-2,0-2.32-.51-2.32-3.38,0-7.28-6.33-7.33-10.92-.09-2.86,4.51-5.82,14.76-8.16,28.32-0.7,4-1.76,7.49-2.35,7.67-1.76.52-10.57,1.47-10.57,1.14h0Zm50.16-1c-1.1-1.33-.5-4.92,5.22-30.95l2.36-10.75h-3.37c-1.85,0-3.37-.25-3.37-0.57,0-1.56,2.24-4.43,3.46-4.43,2.44,0,7.12-4.74,9.08-9.19,2.2-5,3.07-5.78,6.33-5.8,2.15,0,2.31.29,1.72,3.23-0.36,1.79-.92,4.94-1.25,7l-0.6,3.75h4.63c4.73,0,5.42.76,4,4.42-0.44,1.14-2,1.58-5.39,1.58-5.56,0-4.65-2-9.08,19.9-3.26,16.09-3,17.57,2.38,16,4.52-1.3,4.88-1.19,4.52,1.33-0.24,1.71-1.53,2.65-5.32,3.92C285.22,669.27,277.49,669.54,276,667.75Zm40.34-1.29c-7.32-7.9-2-30.35,9.63-40.83,4.75-4.27,12.18-7.58,17-7.58,3.07,0,9.85,3.15,10.87,5.05,1.61,3,1.11,10.21-.95,13.58-4.22,6.91-13.3,11.37-23.21,11.37h-5.87v5.28c0,10.24,4.26,12,15.45,6.52,3.57-1.76,6.68-3,6.92-2.75a6.83,6.83,0,0,1,.78,2.45c0.28,1.61-1.11,2.74-7,5.75-6.42,3.26-8.29,3.75-14.3,3.75s-7.17-.28-9.32-2.6h0Zm17.6-24.56c5.28-1.79,9-4.82,10.59-8.65,1.35-3.22,1.31-3.72-.46-6.1-2.75-3.7-5.45-3.72-9.59-.08-3.2,2.81-8.64,12.21-8.64,14.93,0,1.39,3.85,1.35,8.1-.09h0Zm375.57,26.49c-1.41-1.41-.5-7.31,4.3-27.71,6.53-27.75,10-44.09,10-46.74,0-1.9-.41-2.08-3.5-1.58s-3.5.35-3.5-1.83c0-2.5,2.49-3.61,12.43-5.52,5.13-1,6.57-.34,6.57,3,0,1.49-3.37,17.31-7.49,35.14s-7.5,33.95-7.5,35.81v3.39l4.57-.63c4.3-.59,4.55-0.49,4.25,1.58-0.25,1.71-1.57,2.6-5.82,3.93-5.62,1.76-13.14,2.37-14.33,1.18h0Zm37.7-.55c-1.23-2-.53-6.32,3.73-23,2.22-8.71,3.86-16.6,3.66-17.54-0.39-1.8-.64-1.84-5-0.81-2.32.55-2.75,0.33-2.75-1.42,0-2.38,4.27-4.5,12-6,5.56-1.05,8-.51,8,1.79,0,0.86-2,10.06-4.53,20.44s-4.23,19.36-3.87,19.95,2.38,0.83,5.1.46c4.15-.57,4.42-0.47,4.12,1.6-0.25,1.71-1.57,2.6-5.82,3.93-6.51,2-13.58,2.34-14.64.62h0Zm36.93-.45c-0.35-.92-0.08-4.18.6-7.25,2.23-10.08,7.11-33.15,7.11-33.62,0-.25-1.38-0.46-3.07-0.46-4.34,0-3.53-2.8,1.57-5.43,3-1.57,4.79-3.57,7.3-8.32,2.86-5.41,3.68-6.25,6.13-6.25h2.82l-1.34,6.25c-0.74,3.44-1.36,6.59-1.38,7s2.21,0.75,5,.75c5.22,0,5.35.1,4.37,3.75-0.53,2-1.26,2.25-5.78,2.25h-5.17l-3.36,16.88c-1.85,9.28-3.09,17.58-2.76,18.45,0.49,1.27,1.23,1.39,3.9.62,4.58-1.31,4.81-1.25,4.81,1.42,0,2-.82,2.6-5.82,4-7.75,2.17-14,2.16-14.89,0h0Zm41.18-.6c-2.49-2.14-2.92-3.32-3.28-8.92-0.8-12.59,5-26.8,13.51-33.33,9.45-7.21,19.76-8.17,25.56-2.37,2.69,2.69,2.93,3.45,2.49,8-1,9.91-10.44,17.1-23.43,17.76-8.12.41-9,1.39-7.38,8.43,1.73,7.67,4.89,8.45,14.9,3.72,6.63-3.14,8.16-3.13,8.16,0s-12,8.33-20.58,8.8c-6.38.35-7.36,0.15-9.94-2.08h0Zm21.5-26.73c6.24-3.18,8.91-10.26,5.36-14.18-4.47-4.94-12.74,1.53-16.84,13.17l-1.51,4.28,4.51-.62a32,32,0,0,0,8.48-2.65h0Zm239,28.62c0-.15,1.8-7.89,4-17.2s4-18.9,4-21.31V625.8l-4,.64c-3.53.57-4,.41-4-1.34,0-2.43,1.76-3.41,9.86-5.51,7-1.82,9.14-1.12,9.14,3.06V625l3.55-2.41c6.22-4.22,10.06-5,14.55-3,2.15,1,3.9,2,3.91,2.36s-1,3.41-2.24,6.85c-1.85,5.16-2.63,6.25-4.5,6.25s-2.26-.54-2.26-3.38c0-6.84-5.88-7.35-10.26-.89-3.34,4.91-5,10.23-7.78,24.27-1.23,6.33-2.51,11.78-2.85,12.12-0.6.61-11.11,2-11.11,1.51h0Zm115.34-1.2c-0.82-2.14.13-8.3,4-25.94l3.28-15-2.81-.31c-3.36-.37-3.92-3.7-0.8-4.69,3.52-1.12,7.58-5.24,9.54-9.69,2.2-5,3.07-5.78,6.33-5.8,2.15,0,2.31.29,1.72,3.23-0.36,1.79-.92,4.94-1.25,7l-0.6,3.75h4.63c4.73,0,5.42.76,4,4.42-0.44,1.14-2,1.58-5.39,1.58-5.56,0-4.65-2-9.08,19.9-3.26,16.09-3,17.57,2.38,16,4.52-1.3,4.88-1.19,4.52,1.33-0.24,1.71-1.53,2.65-5.32,3.92-6.66,2.22-14.36,2.36-15.16.27h0Zm40.35-1c-7.58-7.58-2.34-30.24,9.44-40.84,4.75-4.27,12.18-7.58,17-7.58,3.07,0,9.85,3.15,10.87,5.05,1.61,3,1.11,10.21-.95,13.58-4.24,6.95-13.31,11.37-23.33,11.37h-6l0.44,6.13c0.7,9.74,4.28,11.07,15.25,5.67,3.57-1.76,6.68-3,6.92-2.75a6.84,6.84,0,0,1,.78,2.45c0.28,1.61-1.11,2.74-7,5.75-6.36,3.23-8.32,3.75-14.11,3.75s-7-.32-9.32-2.59h0Zm21-26.06c7-3.48,10.13-11.54,5.77-14.84-2.9-2.19-5-1.82-8.84,1.55-3.22,2.82-8.58,12.2-8.58,15,0,1.66,6.91.63,11.65-1.72h0Zm30.35,27.79c0-.42,1.83-8.53,4.06-18s3.92-18.69,3.75-20.44c-0.29-3-.54-3.17-4-3-2.86.16-3.75-.21-4.15-1.72s0.46-2.28,4.64-3.82a66.16,66.16,0,0,1,8.9-2.58c3.88-.7,3.81-0.76,6.24,5.11a49.07,49.07,0,0,0,5.94-2.75c6.89-3.48,8-3.57,12.24-1l3.16,1.93-2.16,6.54c-1.8,5.46-2.54,6.55-4.41,6.57s-2.25-.51-2.25-3.28c0-8.71-8.29-7-12.83,2.67-1.14,2.43-3.4,10.79-5,18.59s-3.1,14.31-3.3,14.47c-0.88.74-10.85,1.39-10.85,0.71h0Zm50,0c0-.45,1.61-7.08,3.57-14.73,2.14-8.36,3.64-16.71,3.75-20.91l0.18-7-3.63.28c-2.85.22-3.73-.13-4.12-1.61s0.44-2.17,4.63-3.45c9.09-2.77,11.23-3,13-1.2a6.58,6.58,0,0,1,1.62,4.05c0,1.34.18,2.43,0.41,2.43s3.2-1.32,6.6-2.93c8.06-3.81,18.74-5.81,21.93-4.1,2.08,1.11,2.23,1.69,1.62,6.27-0.37,2.78-2,10.49-3.6,17.15s-3,13.68-3.2,15.61c-0.27,3.5-.27,3.5,3.94,3.42,2.88-.06,4.39.39,4.78,1.42,0.79,2.07-.15,2.74-6.42,4.58-7.11,2.08-13.66,2.1-14.45,0-0.33-.85,1.2-9.57,3.39-19.37,4.4-19.65,4.65-21.88,2.56-22.69s-9.81,2.92-14.37,7c-3.76,3.4-4.24,4.45-6.55,14.36-1.37,5.88-2.81,12.87-3.2,15.53s-1.21,5-1.83,5.17c-3,.9-10.62,1.37-10.62.65h0Zm68.59-.78c-0.35-.9,1.44-10.16,4-20.59s4.36-19.56,4.07-20.31c-0.4-1-1.29-1.14-3.82-.41-1.81.52-3.41,0.95-3.55,0.95a5.49,5.49,0,0,1-.26-2.32c0-1.93.88-2.58,5.25-3.91,11.85-3.58,15.51-3,14.31,2.38-0.29,1.29-2.35,10-4.58,19.28s-3.81,17.59-3.5,18.38c0.43,1.11,1.63,1.3,5.1.83,4.27-.59,4.53-0.49,4.23,1.59-0.62,4.27-19.75,8-21.23,4.14h0Zm37.73,0c-0.67-1.74.14-6.51,4.05-23.88,4.32-19.2,4.26-17.5.64-17.5-4.4,0-3.67-2.76,1.44-5.43,2.94-1.54,4.75-3.6,7.09-8.07,2.56-4.88,3.67-6.06,5.94-6.33,3-.36,3.06-0.1.92,10.58l-0.65,3.25h5.23c4.36,0,5.13.26,4.63,1.58a10.14,10.14,0,0,0-.61,3c0,1-1.4,1.42-5.37,1.42h-5.37l-3.3,16.82c-1.82,9.25-3,17.55-2.68,18.45,0.51,1.33,1.22,1.46,3.92.68,4.58-1.31,4.81-1.25,4.81,1.42,0,2-.82,2.6-5.82,4-7.67,2.15-14,2.16-14.87,0h0Zm41.11-.69c-2.86-2.47-2.92-2.72-2.92-12.4,0-9.42.18-10.25,3.78-17.53,4.42-8.94,9.49-13.77,17.64-16.82,14.19-5.31,24.39,3.71,18.11,16-3.55,7-13,12-22.66,12-5.79,0-6.18.17-6.8,2.65-0.84,3.33.21,8.35,2.21,10.62,2.27,2.58,6.18,2.15,13.16-1.45,5.2-2.68,6.36-3,7.13-1.75,1.77,2.8.89,3.88-5.8,7.11a31.62,31.62,0,0,1-13.83,3.65c-6.42.35-7.35,0.16-10-2.13h0ZM1512,639.83c6.76-3.8,9-11.27,4.33-14.34a5.24,5.24,0,0,0-5.25-.69c-3.53,1.17-8.56,7.71-10.64,13.82l-1.61,4.72,4.59-.63A29,29,0,0,0,1512,639.83ZM0,666.34a3,3,0,0,1,2.33-2.12c3-.54,5.56-3.18,7.59-7.7,2.69-6,11-47.75,11.21-56.41,0.19-7.38.16-7.47-3-9.5-6.2-4-4.55-4.55,12.71-4.55,13.67,0,16,.22,16,1.53,0,0.9-1.25,1.77-3,2.13C37.44,591,35,597.29,29,628.26c-5.63,28.94-5.57,28.38-3,30.91,1.92,1.92,3,2.08,10.76,1.69,10.48-.53,14.27-2.29,17.93-8.35,2.88-4.78,3-4.86,5.07-3.55,1.15,0.73,1.11,1.65-.27,5.73a61.49,61.49,0,0,1-3.9,8.87l-2.27,4-26.8.27C1.4,668.07-.29,668,0,666.34H0Zm505.82,0.3c0-.78,1.69-2.24,3.75-3.25a12.54,12.54,0,0,0,5.94-6.33c2.86-5.88,11.53-48.47,11.68-57.46,0.12-6.79,0-7-3.09-9-6.71-4.27-5.19-4.54,25.28-4.54,28,0,28.55,0,27.94,2-0.34,1.08-1.19,5-1.87,8.75-1.06,5.75-1.58,6.83-3.44,7.1s-2.2-.17-2.2-2.32c0-6.64-3.94-8.5-18-8.5h-9.66l-2.77,12.75c-1.53,7-3,13.54-3.26,14.5-0.44,1.57.41,1.75,8.33,1.74,10,0,12.89-1.08,15.82-5.73,2.6-4.13,6-4.47,5.2-.51-0.3,1.51-1.34,6.91-2.32,12-1.4,7.3-2.13,9.25-3.45,9.25-1.06,0-1.9-1.09-2.27-2.95a6.79,6.79,0,0,0-2.87-4.18c-2.4-1.29-18.13-1.87-19.29-.71-0.67.67-3.63,15.08-4.92,24-0.62,4.3-.46,4.83,1.88,6.37,2.06,1.35,4.27,1.59,11.3,1.24,10.44-.52,14.14-2.19,18.43-8.28,1.86-2.63,3.61-4.15,4.44-3.84,1.95,0.75,1.72,2.53-1.23,9.59-4.37,10.46-1.88,9.72-32.56,9.72-22.5,0-26.85-.23-26.85-1.42h0Zm508,0c0-.8,1.46-1.95,3.25-2.56,6.31-2.15,8.4-7.86,14.72-40.22,5.44-27.87,5.31-32.33-1-34.34-1.13-.36-1.87-1.17-1.66-1.82,0.28-.84,8.11-1.24,28.13-1.43,27.27-.26,27.73-0.23,27.11,1.72-0.35,1.09-1.19,5-1.88,8.77-1.06,5.75-1.58,6.83-3.44,7.1s-2.2-.16-2.2-2.75c0-6.31-4.88-8.4-18.44-7.87l-7.94.31-2.78,13c-1.53,7.15-2.8,13.56-2.81,14.25-0.05,1.85,15.23,1.68,18.87-.2a10.3,10.3,0,0,0,4.07-4.5c0.77-1.87,2-3,3.14-3,2.33,0,2.34-.73-0.27,12.75-1.83,9.45-2.48,11.25-4,11.25a1.72,1.72,0,0,1-1.83-1.83c0-4.67-9.35-8.14-18-6.68l-3.82.65-2,11.18c-3.58,19.71-3.43,21.5,2,23.75,6,2.48,2.53,3.42-13.5,3.71-13.14.23-15.67,0-15.67-1.17h0ZM427.24,645.15c-4.47-2-8.39-8.31-8.39-13.44,0-7.94,7-15,14.85-15,9.36,0,15.14,5.75,15.15,15,0,11.72-10.73,18.42-21.6,13.49h0Zm509,0.47a18.9,18.9,0,0,1-6-5.09c-2.32-3-2.83-4.69-2.77-8.92,0.13-9.19,5.85-14.84,15-14.84,4.54,0,6,.49,9.15,3,6.9,5.55,8,14.86,2.47,21.41-4.63,5.5-11.53,7.22-17.88,4.46h0ZM338.36,610.08c-2-2.17-2.11-1.95,9.26-14.89l3.83-4.37,5.7,1.27c3.13,0.7,5.7,1.58,5.7,1.95,0,0.67-21.41,18-22.24,18a8.3,8.3,0,0,1-2.24-2h0Zm508.75,0-2.22-1.8,7.55-8.61c4.15-4.74,7.93-8.61,8.4-8.61,2.44,0,11,2.46,10.78,3.09s-18.88,15.65-21.28,17.11c-0.55.34-2-.2-3.22-1.18h0Zm664.77,0-2.41-1.82,7.81-8.6c4.3-4.73,8.17-8.6,8.61-8.6,2,0,10.95,2.4,10.91,2.92s-18.93,15.78-21.38,17.25C1514.8,611.6,1513.21,611.09,1511.88,610.09ZM84.74,605c-4.06-4.06-.1-11.9,6-11.9,4.26,0,6.48,2.23,6.48,6.51A7.34,7.34,0,0,1,84.74,605Zm674.85,0.71c-2.46-1.87-2.31-8,.25-10.61,4.12-4.12,12-1.43,12,4.1C771.85,605.16,764.24,609.19,759.6,605.67Zm664.15-.71c-4.13-4.13-.08-11.9,6.21-11.9s9,7,4.43,11.55a7.47,7.47,0,0,1-10.65.35h0Zm-876.1-28.58c-1.53-1.7-1.16-2.31,6.07-10.18l7.7-8.37,5.72,1.28c3.15,0.7,5.7,1.55,5.67,1.87-0.08,1-20.16,16.33-21.92,16.79a3.85,3.85,0,0,1-3.23-1.39h0Z" transform="translate(68.95)"/><path id="path10" class="cls-2" d="M880.1,520l2.33-6a131.18,131.18,0,0,1,14-28.34c6.27-9.67,20.07-23.91,25.81-26.63,7.05-3.35,15.82-4.53,26.67-3.59,9.31,0.81,37.93,5.49,49.47,8.09,8.79,2,21.65,2.17,27.71.41,11.67-3.39,18.58-10,21.86-20.75,2.52-8.28,2.49-15.8-.07-20.82-3.44-6.74-2.85-8.49,5.5-16.48,4.13-3.94,7.51-7.59,7.51-8.1,0-2.67-5.68-13.39-7.15-13.41a8.51,8.51,0,0,1-4-1.91l-2.32-1.88,5-2.53c6.77-3.46,11.79-8.84,11.79-12.64,0-1.64-1.43-5.66-3.17-8.93-3.35-6.28-4.24-12.28-2.36-15.8,1.24-2.33,3.39-3.31,13.93-6.35,8.86-2.56,12.06-5.16,13.32-10.8,1.08-4.83.55-7.93-2.35-13.73-2.36-4.72-17.73-28.27-22.21-34-6-7.73-13.35-21.09-15.51-28.27s-2.15-7.48-.59-16.63c3.3-19.35,1.37-35.39-8-66.67-7-23.25-8.84-28.89-11-33.24-3.95-7.86-3.42-9.7,4.68-16.33,3.87-3.17,7.47-6.57,8-7.55,2.44-4.57-.29-13.38-4.92-15.86-2.94-1.57-4.58-.49-7.56,5-2.26,4.16-3.15,4.95-5.57,4.95-3.94,0-4.63-1.65-2.11-5.06,2.93-4,2.7-4.61-1.91-5.23-3.45-.46-5.27-1.81-12.75-9.43-10-10.21-16.76-14.91-30.19-21.09-6.15-2.83-8.3-4.17-6-3.77,1.92,0.34,8.73.87,15.12,1.2,18.55,0.93,23.06-1.52,27.39-14.89,2.94-9.07,4.34-13.27-2.39-19.61L983.25,0H1538V520H880.1Z" transform="translate(68.95)"/><path id="path12" class="cls-3" d="M407,520c-4-.42-7.52-0.61-7.76-0.85-0.42-.42,4.12-3.35,24.95-16,6.68-4.07,9.43-6.25,8.5-6.75-0.75-.4-6.58-1-13-1.42-9.47-.56-12.21-0.4-15,0.88a169.37,169.37,0,0,1-16.65,5c-18.06,4.74-24.14,8-29.94,16L356,520H0V0H706.34L692.65,8.93c-7.53,3.74-16.29,8.94-19.46,11.55-10.74,8.85-25.21,29-28.82,40.11-1.33,4.09-2.53,5.62-6.61,8.4-6.22,4.24-13.66,12.33-19.83,21.55-8.37,12.51-24.33,40.7-27.47,48.52-4.86,12.13-4.42,21.37,2.76,57.62,3.16,16,6.58,32.17,7.6,36a101.6,101.6,0,0,1,2.48,14.51c0.61,7.37,1.09,9,5.41,18a22.37,22.37,0,0,1,2.14,6.25,4.22,4.22,0,0,0,2,3,4.76,4.76,0,0,1,2,3.77c0,1.73,2.28,5,7.28,10.52,11.44,12.57,19.72,24.35,19.72,28.07,0,3.06-4.49,3.85-11.72,2.06-8.45-2.09-15.37-6.6-26-17-4.54-4.42-8.25-7.38-8.25-6.6s3.11,4.89,6.91,9.12c7.56,8.41,8.75,10.71,7.11,13.77-1.43,2.67-4.91,3.45-9.62,2.15-5.43-1.5-8.62.59-7.72,5.08,0.55,2.75.4,3.07-1.15,2.48-3.07-1.18-9.79-2.53-15.84-3.18-5.55-.6-6-0.84-9.32-5.53-2.55-3.55-4.53-5.18-7.19-5.93-9.92-2.79-34.6-7.08-51.17-8.91-29.13-3.21-36.14-3.46-50.1-1.8-10.72,1.28-13.63,2-19.5,5-10.39,5.28-28.4,21.84-28.4,26.1,0,2,4,1.3,8.5-1.51,13.76-8.52,60.88-20.55,84-21.44,11.46-.44,10.84.11-2.91,2.57-3.8.68-12.8,3-20,5.12s-19.61,5.43-27.59,7.32-17,4.32-20,5.41l-5.5,2,8.5,0.09c43.31,0.47,92.68,14.22,112.77,31.41,8.65,7.39,11.81,8.29,24.53,7,17.43-1.84,40-10.16,49.88-18.4,4.29-3.58,7.82-5,7.82-3.15,0,3.27-5.7,20.84-8.16,25.2-2.74,4.86-2.9,5.56-1.47,6.6,0.88,0.64,1.34,1.42,1,1.73s0.37,0.86,1.52,1.22c3.28,1,2.46,2-2.78,3.39s-9.14,3.6-9.14,5.19a1.38,1.38,0,0,0,1.56.94c2.57,0,.65,1.8-2.7,2.53-2.3.5-2.76,0.92-1.74,1.56s1,0.88.13,0.89c-0.69,0-1.25,1-1.25,2.27,0,1.55-.95,2.68-3,3.59-5,2.22-3.6,3.42,3.25,2.77,3.44-.32,5.58-0.32,4.75,0s-6.45,2.87-12.5,5.66-13.92,6.09-17.5,7.35c-4,1.42-6.63,2.92-6.85,4-0.35,1.68,1.53,1.63,6.26-.19,0.88-.34,1.58-0.23,1.57.25s-10.43,6.49-23.14,13.37-24.62,14-26.44,15.76-4.16,3.25-5.19,3.25-2.39,1.14-3,2.55c-1.94,4.27-1.54,4.78,3.09,4,6.88-1.18,10-1.12,10.49.22,0.25,0.72-.4,1.25-1.53,1.25a4.65,4.65,0,0,0-3.16,1.44,6.77,6.77,0,0,1-3.86,1.75c-1.7.2-3.39,1.46-4.68,3.49-1.11,1.75-2.91,3.42-4,3.7s0.47,0.33,3.5.1c45-3.35,53.36-5,71.5-14.21a172.31,172.31,0,0,0,43-31.2c3.28-3.36,6.32-6.1,6.75-6.1,1.55,0,.71,5.61-1.58,10.54-4,8.53-12.3,16.39-29.43,27.76-8.64,5.74-18,11.14-20.71,12-8.59,2.71-22.46,5.59-37,7.69-47.37,6.85-65.5,12-83.46,23.92-3,2-6.16,3.49-7,3.35s-3.12,1.08-5,2.72c-5.4,4.62-1.49,3.83,9.71-1.94,11.47-5.92,16.85-6.85,7.8-1.35-11.09,6.74-19.55,11-27.82,11H407Zm-58.85-58c1.8-.75,7.75-4.08,13.22-7.41s12-7,14.45-8.08l15.5-7c12.68-5.72,31.29-11.12,32.36-9.39,0.38,0.61,3.15,1.28,6.16,1.49,4.22,0.29,5,.57,3.23,1.18-1.24.44-2.25,1.19-2.25,1.68,0,1.81,9.36,1.27,13.3-.77a28.08,28.08,0,0,1,7.75-2c3.38-.4,4.95-1,4.95-2s0.86-1.3,3.91-.79c4.2,0.71,13.24-1,37.59-7.11,16.49-4.14,29-8.3,39.94-13.32l7.94-3.63-7.94-5.09c-19.35-12.4-38.78-20-81.44-31.92-7.42-2.07-13.95-4.21-14.5-4.76s-0.33-.75,1-0.28c4.26,1.53,7.5,1.82,7.5.68,0-1.48-3.22-2.68-9.55-3.54-5.79-.79-9.52-2.52-5.5-2.54,6.22,0-4.47-4-16.45-6.07-8.87-1.54-9.38-1.87-5.67-3.67,3.23-1.56,6.7-7.48,5.78-9.86-0.78-2-1.74-1.81-6.54,1.41a67,67,0,0,0-22.49,27c-2.72,6-1.78,6.6,12.21,7.2,11.46,0.49,11.64.53,8.7,2.11a27.64,27.64,0,0,1-7.35,2.28c-8.14,1.25-12.65,5.11-8.62,7.37,1.2,0.67.72,1.24-2.22,2.64-3.3,1.57-3.53,1.91-1.94,2.79,1,0.55,3.86.84,6.39,0.64,3.51-.28,5.11.1,6.8,1.61l2.21,2-4.44,2.82a20.45,20.45,0,0,0-6.13,6,62.32,62.32,0,0,1-7.45,9.33c-3.16,3.37-5.75,6.85-5.75,7.74s-4.61,5.31-10.25,9.82c-15.16,12.14-21.75,18.81-21.75,22a5,5,0,0,1-2.36,4.22c-4.73,3.1-7.2,6.69-4.61,6.69a18.75,18.75,0,0,0,4.3-1.37h0Zm117-11.69c3.75-.5,8.09-1.66,9.64-2.58l2.83-1.67-4.83-2.41L468,441.23l-4.82,2c-2.65,1.07-6.32,2.52-8.15,3.22-7.38,2.79-8.34,6.55-1.41,5.52,2.61-.39,7.82-1.12,11.56-1.62h0ZM295.85,404.8c22.28-23.32,38-37.15,58-51,6.78-4.7,11.56-7.42,11.8-6.71,0.65,1.95,3.55,1.37,8.28-1.63,5.44-3.45,8.16-6.95,14.94-19.2,7-12.71,9.7-15.89,19.86-23.72,4.75-3.66,11.75-9.13,15.55-12.15,5.48-4.35,6.79-5,6.34-3.32-0.35,1.34-.11,2.18.62,2.18,2.27,0,13-4.57,13.35-5.7,0.59-1.77-10.29-3.59-18.33-3.08-6.18.4-8.36,1.11-16,5.25-18,9.73-31,20.22-55.86,45.06-17.88,17.87-32,29.86-39.08,33.25-2.32,1.11-4.06,3.42-6.88,9.13-5.47,11.09-15.22,27-24.49,39.95-8.75,12.23-10.63,16.45-3.83,8.62,2.34-2.69,9.42-10.31,15.75-16.93h0Zm223,109.47c26.76-5.57,29.72-6,48.5-6.8,21.09-.92,23.78-1.47,36.46-7.44,4.06-1.91,5.66-2.26,6.22-1.36,1,1.57,7.86-2.18,21.31-11.61,5.5-3.86,13.28-8.79,17.28-11,6-3.27,7.88-3.83,10.79-3.28,3.1,0.58,4,.2,8-3.28,11-9.67,20.34-14.13,29.7-14.16,2.78,0,3.75.4,3.75,1.6a1,1,0,0,0,1.5,1c2.79-1.07,1.53.15-5.64,5.47-8.3,6.16-7.48,8,1,2.16,8.17-5.66,8.19-5.67,8.19-3.38,0,1.3-3.08,4.58-8.75,9.32-12.91,10.78-22.05,19.69-36,35.07L648.68,520H490.35Zm0.25-203.7a8.21,8.21,0,0,1,3.5,0c1,0.25.17,0.46-1.75,0.46S518.14,310.82,519.1,310.57Z" transform="translate(68.95)"/><path id="path14" class="cls-4" d="M985.58,272.52c-4.37-.66-2.11-2.28,3.17-2.28s8.1-2,8.1-5.9c0-1.82-.4-2.11-2.09-1.58a2.76,2.76,0,0,1-3.46-1.3c-0.9-1.28-3.07-2.19-6.26-2.61-5.7-.76-14.94-6.27-13.29-7.93,0.57-.57,3.5-1.23,6.53-1.49,5.21-.43,5.56-0.63,6.61-3.84,0.79-2.4,1.89-3.56,3.79-4a14,14,0,0,0,5.17-2.93,108.52,108.52,0,0,1,10-7.2c6.93-4.53,11.23-9.35,9.7-10.89s-16.63-3.38-23.7-2.78c-8.2.7-22.34,3.68-28.25,6-6.07,2.34-4.29.3,4-4.64,11.25-6.68,32.92-12.91,44.9-12.91,4.65,0,20.2,3.68,22.06,5.21,3.63,3-.33,13.57-7.06,18.85l-2.81,2.2,2.31,2.47,2.31,2.47L1025,239.3a8.4,8.4,0,0,1-4,1.92c-0.88,0-3,1.41-4.82,3.13-2.73,2.65-3.08,3.5-2.3,5.57a5.3,5.3,0,0,1-.17,4.5c-0.67,1.26-.84,4.12-0.44,7.38,0.83,6.66-.37,9-5.23,10.39-3.6,1-16.79,1.2-22.51.33h0Z" transform="translate(68.95)"/><text x="68.95"/><text x="68.95"/></svg>